<svg xmlns="http://www.w3.org/2000/svg" xmlns:xlink="http://www.w3.org/1999/xlink" width="100" zoomAndPan="magnify" viewBox="0 0 75 37.5" height="50" preserveAspectRatio="xMidYMid meet" version="1.0"><defs><clipPath id="f01e939c9f"><path d="M 9 8 L 25 8 L 25 33.304688 L 9 33.304688 Z M 9 8 " clip-rule="nonzero"/></clipPath><clipPath id="b2128c1623"><path d="M 6.527344 3.699219 L 33.171875 3.699219 L 33.171875 33 L 6.527344 33 Z M 6.527344 3.699219 " clip-rule="nonzero"/></clipPath><clipPath id="128cc8e891"><path d="M 36 2.664062 L 66 2.664062 L 66 33 L 36 33 Z M 36 2.664062 " clip-rule="nonzero"/></clipPath><clipPath id="2a893c84a1"><path d="M 33.355469 4 L 68.140625 4 L 68.140625 33.011719 L 33.355469 33.011719 Z M 33.355469 4 " clip-rule="nonzero"/></clipPath></defs><g clip-path="url(#f01e939c9f)"><path fill="#d22d0f" d="M 12.664062 28.335938 L 12.273438 28.335938 L 12.273438 32.464844 L 12.667969 32.464844 L 12.667969 33.242188 C 12.667969 33.28125 12.695312 33.308594 12.734375 33.308594 C 12.769531 33.308594 12.796875 33.28125 12.796875 33.242188 L 12.796875 32.464844 L 13.199219 32.464844 L 13.199219 28.335938 L 12.796875 28.335938 L 12.796875 28.019531 C 12.796875 27.980469 12.769531 27.953125 12.730469 27.953125 C 12.695312 27.953125 12.664062 27.980469 12.664062 28.019531 Z M 11.378906 28.332031 L 10.957031 28.332031 L 10.957031 29.148438 L 11.378906 29.148438 L 11.378906 31.152344 C 11.378906 31.191406 11.410156 31.21875 11.445312 31.21875 C 11.484375 31.21875 11.511719 31.191406 11.511719 31.152344 L 11.511719 29.148438 L 11.882812 29.148438 L 11.882812 28.332031 L 11.511719 28.332031 L 11.511719 27.0625 C 11.511719 27.027344 11.484375 26.996094 11.445312 26.996094 C 11.410156 26.996094 11.378906 27.027344 11.378906 27.0625 Z M 10.152344 25 L 10.152344 24.542969 C 10.152344 24.503906 10.183594 24.476562 10.21875 24.476562 C 10.257812 24.476562 10.285156 24.503906 10.285156 24.542969 L 10.285156 25 L 10.683594 25 L 10.683594 29.128906 L 10.285156 29.128906 L 10.285156 29.765625 C 10.285156 29.804688 10.253906 29.832031 10.21875 29.832031 C 10.183594 29.832031 10.152344 29.804688 10.152344 29.765625 L 10.152344 29.128906 L 9.753906 29.128906 L 9.753906 25 Z M 24.097656 10.488281 L 23.703125 10.488281 L 23.703125 14.617188 L 24.101562 14.617188 L 24.101562 15.394531 C 24.101562 15.433594 24.128906 15.460938 24.167969 15.460938 C 24.203125 15.460938 24.234375 15.433594 24.234375 15.394531 L 24.234375 14.617188 L 24.628906 14.617188 L 24.628906 10.488281 L 24.230469 10.488281 L 24.230469 10.171875 C 24.230469 10.132812 24.203125 10.105469 24.164062 10.105469 C 24.128906 10.105469 24.097656 10.132812 24.097656 10.171875 Z M 22.808594 10.433594 L 22.410156 10.433594 L 22.410156 11.246094 L 22.808594 11.246094 L 22.808594 12.882812 C 22.808594 12.921875 22.839844 12.953125 22.875 12.953125 C 22.914062 12.953125 22.941406 12.921875 22.941406 12.882812 L 22.941406 11.246094 L 23.339844 11.246094 L 23.339844 10.433594 L 22.941406 10.433594 L 22.941406 8.792969 C 22.941406 8.757812 22.910156 8.726562 22.875 8.726562 C 22.839844 8.726562 22.808594 8.757812 22.808594 8.792969 Z M 22.808594 10.433594 " fill-opacity="1" fill-rule="evenodd"/></g><g clip-path="url(#b2128c1623)"><path fill="#40a421" d="M 14.144531 21.75 L 14.144531 19.617188 C 14.144531 19.578125 14.175781 19.550781 14.210938 19.550781 C 14.246094 19.550781 14.277344 19.578125 14.277344 19.617188 L 14.277344 21.75 L 14.671875 21.75 L 14.671875 30.433594 L 14.273438 30.433594 L 14.273438 32.386719 C 14.273438 32.425781 14.246094 32.453125 14.207031 32.453125 C 14.171875 32.453125 14.140625 32.425781 14.140625 32.386719 L 14.144531 30.433594 L 13.746094 30.433594 L 13.746094 21.75 Z M 6.921875 24.035156 L 6.523438 24.035156 L 6.523438 25.214844 L 6.921875 25.214844 L 6.921875 27.757812 C 6.921875 27.796875 6.949219 27.824219 6.988281 27.824219 C 7.023438 27.824219 7.054688 27.796875 7.054688 27.757812 L 7.054688 25.214844 L 7.449219 25.214844 L 7.449219 24.035156 L 7.054688 24.035156 L 7.054688 23.191406 C 7.054688 23.152344 7.023438 23.121094 6.988281 23.121094 C 6.949219 23.121094 6.921875 23.152344 6.921875 23.191406 Z M 8.574219 22.246094 L 8.574219 21.398438 C 8.574219 21.363281 8.601562 21.332031 8.640625 21.332031 C 8.675781 21.332031 8.707031 21.363281 8.707031 21.398438 L 8.707031 22.246094 L 9.101562 22.246094 L 9.101562 25.164062 L 8.703125 25.164062 L 8.703125 25.96875 C 8.703125 26.003906 8.675781 26.035156 8.636719 26.035156 C 8.601562 26.035156 8.570312 26.003906 8.570312 25.96875 L 8.570312 25.164062 L 8.175781 25.164062 L 8.175781 22.246094 Z M 15.625 21.742188 L 15.230469 21.742188 L 15.230469 22.917969 L 15.625 22.917969 L 15.625 25.464844 C 15.628906 25.5 15.65625 25.53125 15.695312 25.53125 C 15.730469 25.53125 15.761719 25.5 15.761719 25.464844 L 15.757812 22.917969 L 16.15625 22.917969 L 16.15625 21.742188 L 15.757812 21.742188 L 15.757812 20.894531 C 15.757812 20.859375 15.730469 20.828125 15.691406 20.828125 C 15.65625 20.828125 15.625 20.859375 15.625 20.894531 Z M 17.277344 19.953125 L 17.277344 19.105469 C 17.277344 19.066406 17.308594 19.039062 17.34375 19.039062 C 17.382812 19.039062 17.410156 19.066406 17.410156 19.105469 L 17.410156 19.953125 L 17.808594 19.953125 L 17.808594 22.871094 L 17.410156 22.871094 L 17.410156 23.671875 C 17.410156 23.710938 17.378906 23.742188 17.34375 23.742188 C 17.308594 23.742188 17.277344 23.710938 17.277344 23.671875 L 17.277344 22.871094 L 16.882812 22.871094 L 16.882812 19.953125 Z M 18.664062 18.699219 L 18.664062 18.382812 C 18.664062 18.347656 18.695312 18.316406 18.730469 18.316406 C 18.765625 18.316406 18.796875 18.347656 18.796875 18.382812 L 18.796875 18.699219 L 19.195312 18.699219 L 19.195312 22.832031 L 18.796875 22.832031 L 18.796875 23.609375 C 18.796875 23.644531 18.765625 23.675781 18.730469 23.675781 C 18.691406 23.675781 18.664062 23.644531 18.664062 23.609375 L 18.664062 22.832031 L 18.265625 22.832031 L 18.265625 18.699219 Z M 19.980469 18.699219 L 19.980469 17.429688 C 19.980469 17.390625 20.011719 17.363281 20.046875 17.363281 C 20.085938 17.363281 20.113281 17.390625 20.113281 17.429688 L 20.113281 18.699219 L 20.511719 18.699219 L 20.511719 19.511719 L 20.113281 19.511719 L 20.113281 21.519531 C 20.113281 21.554688 20.082031 21.585938 20.046875 21.585938 C 20.011719 21.585938 19.980469 21.554688 19.980469 21.519531 L 19.980469 19.511719 L 19.582031 19.511719 L 19.582031 18.699219 Z M 21.359375 10.433594 L 21.359375 8.300781 C 21.359375 8.265625 21.390625 8.234375 21.425781 8.234375 C 21.464844 8.234375 21.492188 8.265625 21.492188 8.300781 L 21.492188 10.433594 L 21.890625 10.433594 L 21.890625 19.117188 L 21.492188 19.117188 L 21.492188 21.070312 C 21.492188 21.109375 21.460938 21.140625 21.425781 21.140625 C 21.386719 21.140625 21.359375 21.109375 21.359375 21.070312 L 21.359375 19.117188 L 20.960938 19.117188 L 20.960938 10.433594 Z M 25.570312 11.617188 L 25.570312 10.769531 C 25.570312 10.734375 25.601562 10.703125 25.636719 10.703125 C 25.675781 10.703125 25.703125 10.734375 25.703125 10.769531 L 25.703125 11.617188 L 26.101562 11.617188 L 26.101562 14.535156 L 25.703125 14.535156 L 25.703125 15.339844 C 25.703125 15.375 25.671875 15.40625 25.636719 15.40625 C 25.601562 15.40625 25.570312 15.375 25.570312 15.339844 L 25.570312 14.535156 L 25.171875 14.535156 L 25.171875 11.617188 Z M 26.957031 10.367188 L 26.957031 10.046875 C 26.957031 10.011719 26.988281 9.980469 27.023438 9.980469 C 27.058594 9.980469 27.089844 10.011719 27.089844 10.046875 L 27.089844 10.367188 L 27.488281 10.367188 L 27.488281 14.496094 L 27.089844 14.496094 L 27.089844 15.273438 C 27.089844 15.308594 27.058594 15.339844 27.023438 15.339844 C 26.984375 15.339844 26.957031 15.308594 26.957031 15.273438 L 26.957031 14.496094 L 26.558594 14.496094 L 26.558594 10.367188 Z M 29.933594 8.574219 L 29.933594 7.726562 C 29.933594 7.691406 29.964844 7.660156 30 7.660156 C 30.035156 7.660156 30.066406 7.691406 30.066406 7.726562 L 30.066406 8.574219 L 30.464844 8.574219 L 30.464844 11.492188 L 30.066406 11.492188 L 30.066406 12.296875 C 30.066406 12.332031 30.035156 12.363281 30 12.363281 C 29.960938 12.363281 29.933594 12.332031 29.933594 12.296875 L 29.933594 11.492188 L 29.535156 11.492188 L 29.535156 8.574219 Z M 28.28125 10.367188 L 27.882812 10.367188 L 27.882812 10.890625 L 28.28125 10.890625 L 28.28125 11.828125 C 28.28125 11.867188 28.3125 11.898438 28.347656 11.898438 C 28.386719 11.898438 28.414062 11.867188 28.414062 11.828125 L 28.414062 10.890625 L 28.8125 10.890625 L 28.8125 10.367188 L 28.414062 10.367188 L 28.414062 9.519531 C 28.414062 9.480469 28.382812 9.453125 28.347656 9.453125 C 28.3125 9.453125 28.28125 9.480469 28.28125 9.519531 Z M 31.320312 7.324219 L 31.320312 7.003906 C 31.320312 6.96875 31.347656 6.9375 31.386719 6.9375 C 31.421875 6.9375 31.453125 6.96875 31.453125 7.003906 L 31.453125 7.324219 L 31.847656 7.324219 L 31.847656 10.027344 L 31.453125 10.027344 L 31.453125 10.710938 C 31.453125 10.746094 31.421875 10.777344 31.386719 10.777344 C 31.347656 10.777344 31.320312 10.746094 31.320312 10.710938 L 31.320312 10.027344 L 30.921875 10.027344 L 30.921875 7.324219 Z M 32.636719 4.292969 L 32.636719 3.769531 C 32.636719 3.734375 32.667969 3.703125 32.703125 3.703125 C 32.738281 3.703125 32.769531 3.734375 32.769531 3.769531 L 32.769531 4.292969 L 33.167969 4.292969 L 33.167969 8.695312 L 32.769531 8.695312 L 32.769531 10.140625 C 32.769531 10.175781 32.738281 10.207031 32.703125 10.207031 C 32.664062 10.207031 32.636719 10.175781 32.636719 10.140625 L 32.636719 8.695312 L 32.238281 8.695312 L 32.238281 4.292969 Z M 32.636719 4.292969 " fill-opacity="1" fill-rule="evenodd"/></g><g clip-path="url(#128cc8e891)"><path fill="#d22d0f" d="M 59.683594 30.675781 L 59.265625 30.675781 L 59.265625 18.085938 L 60.355469 18.085938 L 60.355469 30.675781 L 59.839844 30.675781 L 59.839844 32.789062 C 59.839844 32.832031 59.804688 32.867188 59.761719 32.867188 C 59.71875 32.867188 59.683594 32.832031 59.683594 32.789062 Z M 53.476562 24.328125 L 53.476562 23.777344 C 53.476562 23.734375 53.511719 23.699219 53.554688 23.699219 C 53.597656 23.699219 53.632812 23.734375 53.632812 23.777344 L 53.632812 24.328125 L 54.109375 24.328125 L 54.109375 29.152344 L 53.632812 29.152344 L 53.632812 29.875 C 53.632812 29.921875 53.597656 29.953125 53.554688 29.953125 C 53.511719 29.953125 53.476562 29.921875 53.476562 29.875 L 53.476562 29.152344 L 53.015625 29.152344 L 53.015625 24.328125 Z M 47.792969 22.238281 L 47.359375 22.238281 L 47.359375 27.058594 L 47.792969 27.058594 L 47.792969 27.785156 C 47.792969 27.828125 47.828125 27.863281 47.871094 27.863281 C 47.914062 27.863281 47.949219 27.828125 47.949219 27.785156 L 47.949219 27.058594 L 48.449219 27.058594 L 48.449219 22.238281 L 47.949219 22.238281 L 47.949219 21.683594 C 47.949219 21.640625 47.914062 21.605469 47.871094 21.605469 C 47.828125 21.605469 47.792969 21.640625 47.792969 21.683594 Z M 55.113281 19.613281 L 55.113281 19.222656 C 55.113281 19.179688 55.148438 19.144531 55.195312 19.144531 C 55.234375 19.144531 55.269531 19.179688 55.269531 19.222656 L 55.269531 19.613281 L 55.753906 19.613281 L 55.753906 24.433594 L 55.269531 24.433594 L 55.269531 25.320312 C 55.269531 25.363281 55.234375 25.398438 55.191406 25.398438 C 55.148438 25.398438 55.113281 25.363281 55.113281 25.320312 L 55.113281 24.433594 L 54.664062 24.433594 L 54.664062 19.613281 Z M 46.15625 17.519531 L 45.714844 17.519531 L 45.714844 22.34375 L 46.15625 22.34375 L 46.15625 23.230469 C 46.15625 23.273438 46.191406 23.308594 46.234375 23.308594 C 46.277344 23.308594 46.3125 23.273438 46.3125 23.230469 L 46.3125 22.34375 L 46.804688 22.34375 L 46.804688 17.519531 L 46.308594 17.519531 L 46.308594 17.128906 C 46.308594 17.085938 46.273438 17.050781 46.230469 17.050781 C 46.1875 17.050781 46.15625 17.085938 46.15625 17.128906 Z M 56.625 19.609375 L 56.628906 18.105469 C 56.628906 18.0625 56.660156 18.027344 56.703125 18.027344 C 56.746094 18.027344 56.78125 18.0625 56.78125 18.105469 L 56.78125 19.609375 L 57.300781 19.609375 L 57.300781 20.558594 L 56.78125 20.558594 L 56.78125 22.878906 C 56.78125 22.925781 56.746094 22.957031 56.703125 22.957031 C 56.660156 22.957031 56.625 22.925781 56.625 22.878906 L 56.625 20.558594 L 56.210938 20.558594 L 56.210938 19.609375 Z M 44.644531 17.515625 L 44.164062 17.515625 L 44.164062 18.46875 L 44.644531 18.46875 L 44.644531 20.789062 C 44.644531 20.832031 44.679688 20.867188 44.722656 20.867188 C 44.765625 20.867188 44.800781 20.832031 44.800781 20.789062 L 44.796875 18.46875 L 45.253906 18.46875 L 45.253906 17.515625 L 44.796875 17.515625 L 44.796875 16.015625 C 44.796875 15.972656 44.761719 15.9375 44.71875 15.9375 C 44.675781 15.9375 44.640625 15.972656 44.640625 16.015625 Z M 61.210938 12.902344 L 61.210938 12.554688 C 61.210938 12.511719 61.25 12.476562 61.292969 12.476562 C 61.335938 12.476562 61.371094 12.511719 61.371094 12.554688 L 61.371094 12.902344 L 61.847656 12.902344 L 61.847656 17.46875 L 61.367188 17.46875 L 61.367188 18.980469 C 61.367188 19.023438 61.332031 19.058594 61.289062 19.058594 C 61.246094 19.058594 61.210938 19.023438 61.210938 18.980469 L 61.210938 17.46875 L 60.757812 17.46875 L 60.757812 12.902344 Z M 64.40625 12.582031 L 64.40625 7.601562 C 64.40625 7.558594 64.441406 7.523438 64.484375 7.523438 C 64.527344 7.523438 64.5625 7.558594 64.5625 7.601562 L 64.558594 12.582031 L 65.066406 12.582031 L 65.066406 17.148438 L 64.558594 17.148438 L 64.558594 17.816406 C 64.558594 17.859375 64.523438 17.894531 64.480469 17.894531 C 64.4375 17.894531 64.402344 17.859375 64.402344 17.816406 L 64.402344 17.148438 L 63.976562 17.148438 L 63.976562 12.582031 Z M 40.054688 10.808594 L 39.617188 10.808594 L 39.617188 15.378906 L 40.058594 15.378906 L 40.058594 16.890625 C 40.058594 16.929688 40.09375 16.964844 40.136719 16.964844 C 40.179688 16.964844 40.214844 16.929688 40.214844 16.890625 L 40.210938 15.378906 L 40.707031 15.378906 L 40.707031 10.808594 L 40.210938 10.808594 L 40.210938 10.460938 C 40.210938 10.417969 40.175781 10.386719 40.132812 10.386719 C 40.089844 10.386719 40.054688 10.417969 40.054688 10.460938 Z M 36.898438 7.722656 L 36.433594 7.722656 L 36.433594 12.289062 L 36.898438 12.289062 L 36.898438 12.960938 C 36.898438 13.003906 36.933594 13.035156 36.976562 13.035156 C 37.019531 13.035156 37.054688 13.003906 37.054688 12.960938 L 37.054688 12.289062 L 37.523438 12.289062 L 37.523438 7.722656 L 37.050781 7.722656 L 37.050781 2.746094 C 37.050781 2.699219 37.015625 2.667969 36.972656 2.667969 C 36.929688 2.667969 36.894531 2.703125 36.894531 2.746094 Z M 36.898438 7.722656 " fill-opacity="1" fill-rule="evenodd"/></g><g clip-path="url(#2a893c84a1)"><path fill="#40a421" d="M 58.1875 20.535156 L 58.1875 18.023438 C 58.1875 17.980469 58.222656 17.945312 58.265625 17.945312 C 58.308594 17.945312 58.34375 17.980469 58.34375 18.023438 L 58.34375 20.535156 L 58.800781 20.535156 L 58.800781 30.675781 L 58.34375 30.675781 L 58.339844 32.9375 C 58.339844 32.980469 58.308594 33.015625 58.265625 33.015625 C 58.21875 33.015625 58.1875 32.980469 58.1875 32.9375 L 58.1875 30.675781 L 57.710938 30.675781 L 57.710938 20.535156 Z M 43.082031 18.445312 L 42.664062 18.445312 L 42.664062 28.582031 L 43.082031 28.582031 L 43.082031 30.84375 C 43.082031 30.886719 43.117188 30.921875 43.160156 30.921875 C 43.203125 30.921875 43.238281 30.886719 43.238281 30.84375 L 43.238281 28.582031 L 43.757812 28.582031 L 43.757812 18.445312 L 43.238281 18.445312 L 43.238281 15.933594 C 43.238281 15.890625 43.203125 15.855469 43.15625 15.855469 C 43.117188 15.855469 43.082031 15.890625 43.082031 15.933594 Z M 41.585938 28.582031 L 41.585938 30.699219 C 41.585938 30.742188 41.621094 30.777344 41.664062 30.777344 C 41.707031 30.777344 41.742188 30.742188 41.742188 30.699219 L 41.738281 28.582031 L 42.203125 28.582031 L 42.203125 15.996094 L 41.109375 15.996094 L 41.109375 28.582031 Z M 51.585938 21.113281 L 51.585938 20.105469 C 51.585938 20.0625 51.621094 20.027344 51.664062 20.027344 C 51.707031 20.027344 51.742188 20.0625 51.742188 20.105469 L 51.742188 21.113281 L 52.25 21.113281 L 52.25 22.488281 L 51.742188 22.488281 L 51.742188 25.441406 C 51.742188 25.484375 51.707031 25.519531 51.664062 25.519531 C 51.621094 25.519531 51.585938 25.484375 51.585938 25.441406 L 51.585938 22.488281 L 51.160156 22.488281 L 51.160156 21.113281 Z M 49.683594 19.023438 L 49.214844 19.023438 L 49.214844 22.433594 L 49.683594 22.433594 L 49.683594 23.347656 C 49.683594 23.390625 49.71875 23.425781 49.761719 23.425781 C 49.804688 23.425781 49.839844 23.390625 49.839844 23.347656 L 49.839844 22.433594 L 50.308594 22.433594 L 50.308594 19.023438 L 49.839844 19.023438 L 49.839844 18.015625 C 49.839844 17.972656 49.804688 17.9375 49.761719 17.9375 C 49.71875 17.9375 49.683594 17.972656 49.683594 18.015625 Z M 67.480469 12.695312 L 67.480469 8.980469 C 67.480469 8.9375 67.519531 8.902344 67.558594 8.902344 C 67.605469 8.902344 67.636719 8.9375 67.636719 8.980469 L 67.636719 12.695312 L 68.140625 12.695312 L 68.140625 18.527344 L 67.636719 18.527344 L 67.636719 19.195312 C 67.636719 19.238281 67.601562 19.273438 67.558594 19.273438 C 67.515625 19.273438 67.480469 19.238281 67.480469 19.195312 L 67.480469 18.527344 L 67.050781 18.527344 L 67.050781 12.695312 Z M 62.71875 12.566406 L 62.71875 11.75 C 62.71875 11.707031 62.753906 11.671875 62.796875 11.671875 C 62.839844 11.671875 62.875 11.707031 62.875 11.75 L 62.875 12.566406 L 63.378906 12.566406 L 63.378906 14.046875 L 62.875 14.046875 L 62.871094 17.292969 C 62.871094 17.335938 62.835938 17.371094 62.792969 17.371094 C 62.75 17.371094 62.71875 17.335938 62.71875 17.292969 L 62.71875 14.046875 L 62.289062 14.046875 L 62.289062 12.566406 Z M 38.550781 10.476562 L 38.089844 10.476562 L 38.089844 11.957031 L 38.550781 11.957031 L 38.554688 15.203125 C 38.554688 15.246094 38.585938 15.28125 38.628906 15.28125 C 38.671875 15.28125 38.707031 15.246094 38.707031 15.203125 L 38.707031 11.957031 L 39.179688 11.957031 L 39.179688 10.476562 L 38.707031 10.476562 L 38.707031 9.660156 C 38.707031 9.617188 38.671875 9.582031 38.628906 9.582031 C 38.585938 9.582031 38.550781 9.617188 38.550781 9.660156 Z M 33.820312 7.835938 L 33.355469 7.835938 L 33.355469 13.667969 L 33.820312 13.667969 L 33.820312 14.335938 C 33.820312 14.378906 33.855469 14.414062 33.898438 14.414062 C 33.941406 14.414062 33.976562 14.378906 33.976562 14.335938 L 33.976562 13.667969 L 34.445312 13.667969 L 34.445312 7.835938 L 33.976562 7.835938 L 33.976562 4.121094 C 33.976562 4.078125 33.941406 4.042969 33.898438 4.042969 C 33.855469 4.042969 33.820312 4.078125 33.820312 4.121094 Z M 33.820312 7.835938 " fill-opacity="1" fill-rule="evenodd"/></g></svg>